# xmcd
#
# Track frame offsets: 
#        150
#        23463
#        48359
#        71631
#        92511
#        121767
#        142063
#        161975
#        186519
#
# Disc length: 2843 seconds
#
# Revision: 0
# Processed by: cddbd v1.5.2PL0 Copyright (c) Steve Scherf et al.
# Submitted via: ExactAudioCopy v0.99pb5
#
DISCID=790b1909
DTITLE=Mai Lam - Tinh Khuc Mai Lam - Tu Xa Ha Noi
DYEAR=2001
DGENRE=Pop
TTITLE0=Tran Thu Ha - Thoi Gian
TTITLE1=Minh Quan - Tim Em Mua Xuan
TTITLE2=My Linh - Tu Xa Ha Noi
TTITLE3=Tran Thu Ha - Vuon Xua
TTITLE4=My Linh - Da Khuc
TTITLE5=Minh Anh - Tinh Yeu (y tho Akhmatova)
TTITLE6=Minh Quan - Ca Khuc No 81
TTITLE7=My Linh - Bien Va Em
TTITLE8=Minh Anh - Chia Tay Ha Noi
EXTD=
EXTT0=
EXTT1=
EXTT2=
EXTT3=
EXTT4=
EXTT5=
EXTT6=
EXTT7=
EXTT8=
PLAYORDER=
